<svg width="620" height="110" viewBox="0 0 620 110" fill="none" xmlns="http://www.w3.org/2000/svg">
<path d="M53.42 0C68.97 0 81.98 5.19 92.45 15.56C102.92 25.93 108.16 38.7 108.16 53.87C108.16 69.04 102.93 81.64 92.48 92.11C82.03 102.58 69.29 107.81 54.25 107.81C39.21 107.81 26.18 102.6 15.71 92.18C5.24 81.76 0 69.15 0 54.36C0 44.5 2.39 35.36 7.16 26.94C11.93 18.52 18.44 11.93 26.68 7.16C34.91 2.38 43.83 0 53.42 0ZM53.87 9.98C46.28 9.98 39.08 11.96 32.27 15.92C25.47 19.88 20.15 25.21 16.33 31.91C12.51 38.61 10.6 46.09 10.6 54.33C10.6 66.53 14.83 76.83 23.29 85.23C31.75 93.63 41.94 97.84 53.87 97.84C61.84 97.84 69.21 95.91 75.99 92.04C82.77 88.18 88.06 82.89 91.85 76.19C95.65 69.49 97.55 62.04 97.55 53.84C97.55 45.64 95.65 38.32 91.85 31.74C88.05 25.15 82.71 19.88 75.81 15.92C68.91 11.96 61.6 9.98 53.86 9.98H53.87Z" fill="white"/>
<path d="M127.07 0H136.84V59.95L172.04 29.31H186.38L144.65 65.53L188.82 105.24H175.07L136.83 71.06V105.24H127.06V0H127.07Z" fill="white"/>
<path d="M197.62 29.31H207.39V64.76C207.39 73.41 207.86 79.37 208.79 82.62C210.19 87.27 212.85 90.95 216.79 93.65C220.73 96.35 225.42 97.7 230.87 97.7C236.32 97.7 240.94 96.39 244.74 93.76C248.54 91.13 251.16 87.68 252.6 83.4C253.58 80.47 254.07 74.26 254.07 64.77V29.31H264.05V66.57C264.05 77.04 262.83 84.92 260.39 90.23C257.95 95.53 254.27 99.69 249.36 102.69C244.45 105.69 238.3 107.19 230.9 107.19C223.5 107.19 217.33 105.69 212.37 102.69C207.42 99.69 203.72 95.5 201.27 90.13C198.83 84.76 197.61 76.68 197.61 65.88V29.31H197.62Z" fill="white"/>
<path d="M361.53 0V105.23H351.9V92.18C347.81 97.16 343.21 100.9 338.12 103.42C333.03 105.93 327.45 107.19 321.41 107.19C310.66 107.19 301.49 103.3 293.88 95.5C286.27 87.71 282.47 78.23 282.47 67.07C282.47 55.91 286.31 46.79 293.98 39.02C301.66 31.25 310.89 27.37 321.68 27.37C327.91 27.37 333.55 28.7 338.6 31.35C343.65 34 348.08 37.98 351.89 43.28V0H361.52H361.53ZM322.49 36.77C317.05 36.77 312.03 38.11 307.44 40.78C302.84 43.45 299.18 47.21 296.46 52.04C293.74 56.87 292.38 61.98 292.38 67.37C292.38 72.76 293.75 77.83 296.49 82.7C299.23 87.58 302.91 91.38 307.54 94.1C312.17 96.82 317.12 98.18 322.42 98.18C327.72 98.18 332.83 96.83 337.62 94.14C342.41 91.45 346.09 87.8 348.67 83.2C351.25 78.6 352.54 73.42 352.54 67.66C352.54 58.88 349.65 51.54 343.86 45.63C338.07 39.73 330.95 36.78 322.5 36.78L322.49 36.77Z" fill="white"/>
<path d="M447.57 80.04L455.8 84.37C453.1 89.67 449.98 93.95 446.44 97.21C442.9 100.47 438.92 102.94 434.5 104.64C430.07 106.34 425.07 107.19 419.48 107.19C407.1 107.19 397.41 103.13 390.43 95.01C383.45 86.89 379.95 77.72 379.95 67.48C379.95 57.85 382.91 49.27 388.82 41.73C396.31 32.15 406.35 27.36 418.92 27.36C431.49 27.36 442.2 32.27 449.93 42.08C455.42 49.01 458.22 57.66 458.31 68.04H390C390.18 76.86 393 84.09 398.45 89.73C403.9 95.37 410.63 98.19 418.64 98.19C422.5 98.19 426.27 97.52 429.92 96.17C433.58 94.83 436.68 93.04 439.25 90.82C441.81 88.6 444.58 85.01 447.56 80.05L447.57 80.04ZM447.57 59.6C446.27 54.39 444.37 50.23 441.88 47.11C439.39 43.99 436.09 41.48 431.99 39.57C427.89 37.66 423.58 36.71 419.06 36.71C411.61 36.71 405.2 39.11 399.85 43.9C395.94 47.39 392.98 52.62 390.97 59.6H447.56H447.57Z" fill="white"/>
<path d="M476.53 29.31H486.3V42.92C490.21 37.71 494.54 33.81 499.28 31.23C504.03 28.65 509.19 27.36 514.77 27.36C520.35 27.36 525.48 28.8 529.88 31.69C534.28 34.58 537.52 38.46 539.62 43.34C541.71 48.23 542.76 55.83 542.76 66.16V105.24H532.99V69.02C532.99 60.28 532.63 54.44 531.9 51.51C530.77 46.49 528.6 42.71 525.39 40.17C522.18 37.64 517.99 36.37 512.83 36.37C506.92 36.37 501.63 38.32 496.95 42.23C492.27 46.14 489.19 50.98 487.7 56.74C486.77 60.51 486.3 67.39 486.3 77.39V105.23H476.53V29.31V29.31Z" fill="white"/>
<path d="M600.39 71.46C605.61 71.46 610.06 73.3 613.74 76.99C617.43 80.67 619.27 85.18 619.27 90.5C619.27 95.82 617.43 100.2 613.74 103.93C610.06 107.67 605.6 109.53 600.39 109.53C595.18 109.53 590.72 107.66 587.03 103.93C583.34 100.19 581.5 95.72 581.5 90.5C581.5 85.28 583.34 80.68 587.03 76.99C590.71 73.3 595.17 71.46 600.39 71.46Z" fill="#14B1A4"/>
</svg>
