<?xml version="1.0" encoding="UTF-8"?><svg id="Layer_2" xmlns="http://www.w3.org/2000/svg" viewBox="0 0 619.27 109.53"><defs><style>.cls-1{fill:#14b1a4;}.cls-2{fill:#182536;}</style></defs><g id="Layer_1-2"><g><path class="cls-2" d="M53.42,0c15.55,0,28.56,5.19,39.03,15.56,10.47,10.37,15.71,23.14,15.71,38.31s-5.23,27.77-15.68,38.24c-10.45,10.47-23.19,15.7-38.23,15.7s-28.07-5.21-38.54-15.63C5.24,81.76,0,69.15,0,54.36c0-9.86,2.39-19,7.16-27.42,4.77-8.42,11.28-15.01,19.52-19.78C34.91,2.38,43.83,0,53.42,0Zm.45,9.98c-7.59,0-14.79,1.98-21.6,5.94-6.8,3.96-12.12,9.29-15.94,15.99-3.82,6.7-5.73,14.18-5.73,22.42,0,12.2,4.23,22.5,12.69,30.9,8.46,8.4,18.65,12.61,30.58,12.61,7.97,0,15.34-1.93,22.12-5.8,6.78-3.86,12.07-9.15,15.86-15.85,3.8-6.7,5.7-14.15,5.7-22.35s-1.9-15.52-5.7-22.1c-3.8-6.59-9.14-11.86-16.04-15.82-6.9-3.96-14.21-5.94-21.95-5.94Z"/><path class="cls-2" d="M127.07,0h9.77V59.95l35.2-30.64h14.34l-41.73,36.22,44.17,39.71h-13.75l-38.24-34.18v34.18h-9.77V0Z"/><path class="cls-2" d="M197.62,29.31h9.77v35.45c0,8.65,.47,14.61,1.4,17.86,1.4,4.65,4.06,8.33,8,11.03,3.94,2.7,8.63,4.05,14.08,4.05s10.07-1.31,13.87-3.94,6.42-6.08,7.86-10.36c.98-2.93,1.47-9.14,1.47-18.63V29.31h9.98v37.26c0,10.47-1.22,18.35-3.66,23.66-2.44,5.3-6.12,9.46-11.03,12.46-4.91,3-11.06,4.5-18.46,4.5s-13.57-1.5-18.53-4.5c-4.95-3-8.65-7.19-11.1-12.56-2.44-5.37-3.66-13.45-3.66-24.25V29.31Z"/><path class="cls-2" d="M361.53,0V105.23h-9.63v-13.05c-4.09,4.98-8.69,8.72-13.78,11.24-5.09,2.51-10.67,3.77-16.71,3.77-10.75,0-19.92-3.89-27.53-11.69-7.61-7.79-11.41-17.27-11.41-28.43s3.84-20.28,11.51-28.05c7.68-7.77,16.91-11.65,27.7-11.65,6.23,0,11.87,1.33,16.92,3.98,5.05,2.65,9.48,6.63,13.29,11.93V0h9.63Zm-39.04,36.77c-5.44,0-10.46,1.34-15.05,4.01-4.6,2.67-8.26,6.43-10.98,11.26-2.72,4.83-4.08,9.94-4.08,15.33s1.37,10.46,4.11,15.33c2.74,4.88,6.42,8.68,11.05,11.4s9.58,4.08,14.88,4.08,10.41-1.35,15.2-4.04c4.79-2.69,8.47-6.34,11.05-10.94,2.58-4.6,3.87-9.78,3.87-15.54,0-8.78-2.89-16.12-8.68-22.03-5.79-5.9-12.91-8.85-21.36-8.85Z"/><path class="cls-2" d="M447.57,80.04l8.23,4.33c-2.7,5.3-5.82,9.58-9.36,12.84-3.54,3.26-7.52,5.73-11.94,7.43-4.43,1.7-9.43,2.55-15.02,2.55-12.38,0-22.07-4.06-29.05-12.18-6.98-8.12-10.48-17.29-10.48-27.53,0-9.63,2.96-18.21,8.87-25.75,7.49-9.58,17.53-14.37,30.1-14.37s23.28,4.91,31.01,14.72c5.49,6.93,8.29,15.58,8.38,25.96h-68.31c.18,8.82,3,16.05,8.45,21.69,5.45,5.64,12.18,8.46,20.19,8.46,3.86,0,7.63-.67,11.28-2.02,3.66-1.34,6.76-3.13,9.33-5.35,2.56-2.22,5.33-5.81,8.31-10.77Zm0-20.44c-1.3-5.21-3.2-9.37-5.69-12.49-2.49-3.12-5.79-5.63-9.89-7.54s-8.41-2.86-12.93-2.86c-7.45,0-13.86,2.4-19.21,7.19-3.91,3.49-6.87,8.72-8.88,15.7h56.59Z"/><path class="cls-2" d="M476.53,29.31h9.77v13.61c3.91-5.21,8.24-9.11,12.98-11.69,4.75-2.58,9.91-3.87,15.49-3.87s10.71,1.44,15.11,4.33,7.64,6.77,9.74,11.65c2.09,4.89,3.14,12.49,3.14,22.82v39.08h-9.77v-36.22c0-8.74-.36-14.58-1.09-17.51-1.13-5.02-3.3-8.8-6.51-11.34-3.21-2.53-7.4-3.8-12.56-3.8-5.91,0-11.2,1.95-15.88,5.86-4.68,3.91-7.76,8.75-9.25,14.51-.93,3.77-1.4,10.65-1.4,20.65v27.84h-9.77V29.31Z"/><path class="cls-1" d="M600.39,71.46c5.22,0,9.67,1.84,13.35,5.53,3.69,3.68,5.53,8.19,5.53,13.51s-1.84,9.7-5.53,13.43c-3.68,3.74-8.14,5.6-13.35,5.6s-9.67-1.87-13.36-5.6c-3.69-3.74-5.53-8.21-5.53-13.43s1.84-9.82,5.53-13.51c3.68-3.69,8.14-5.53,13.36-5.53Z"/></g></g></svg>