<svg width="303" height="54" viewBox="0 0 303 54" fill="none" xmlns="http://www.w3.org/2000/svg">
<path d="M26.12 0C33.72 0 40.08 2.54 45.2 7.61C50.32 12.68 52.88 18.93 52.88 26.34C52.88 33.75 50.32 39.92 45.22 45.04C40.11 50.16 33.88 52.72 26.53 52.72C19.18 52.72 12.81 50.17 7.68 45.08C2.56 39.97 0 33.81 0 26.58C0 21.76 1.17 17.29 3.5 13.17C5.83 9.05 9.01 5.83 13.04 3.5C17.07 1.17 21.43 0 26.12 0ZM26.34 4.88C22.63 4.88 19.11 5.85 15.78 7.78C12.45 9.72 9.86 12.32 7.99 15.6C6.12 18.88 5.19 22.53 5.19 26.56C5.19 32.52 7.26 37.56 11.39 41.67C15.52 45.78 20.51 47.83 26.34 47.83C30.24 47.83 33.84 46.88 37.16 45C40.47 43.11 43.06 40.53 44.92 37.25C46.78 33.97 47.71 30.33 47.71 26.32C47.71 22.31 46.78 18.73 44.92 15.51C43.06 12.29 40.45 9.71 37.08 7.78C33.71 5.85 30.13 4.88 26.35 4.88H26.34Z" fill="white"/>
<path d="M62.1299 0H66.9099V29.31L84.1199 14.33H91.1299L70.7299 32.04L92.3299 51.45H85.6099L66.9199 34.74V51.45H62.1399V0H62.1299Z" fill="white"/>
<path d="M96.6201 14.3301H101.4V31.6601C101.4 35.8901 101.63 38.8001 102.08 40.3901C102.76 42.6601 104.07 44.4601 105.99 45.7801C107.91 47.1001 110.21 47.7601 112.87 47.7601C115.53 47.7601 117.8 47.1201 119.65 45.8301C121.5 44.5401 122.79 42.8601 123.49 40.7601C123.97 39.3301 124.21 36.2901 124.21 31.6501V14.3301H129.09V32.5501C129.09 37.6701 128.49 41.5201 127.3 44.1201C126.11 46.7101 124.31 48.7401 121.91 50.2101C119.51 51.6801 116.5 52.4101 112.89 52.4101C109.28 52.4101 106.25 51.6801 103.83 50.2101C101.41 48.7401 99.6001 46.7001 98.4101 44.0701C97.2201 41.4401 96.6201 37.4901 96.6201 32.2101V14.3301V14.3301Z" fill="white"/>
<path d="M176.76 0V51.45H172.05V45.07C170.05 47.5 167.8 49.33 165.31 50.56C162.82 51.79 160.1 52.4 157.14 52.4C151.89 52.4 147.4 50.5 143.68 46.69C139.96 42.88 138.1 38.25 138.1 32.79C138.1 27.33 139.98 22.87 143.73 19.07C147.48 15.27 152 13.37 157.27 13.37C160.32 13.37 163.08 14.02 165.54 15.31C168.01 16.61 170.17 18.55 172.04 21.14V0H176.75H176.76ZM157.67 17.98C155.01 17.98 152.56 18.63 150.31 19.94C148.06 21.25 146.27 23.08 144.94 25.44C143.61 27.8 142.95 30.3 142.95 32.94C142.95 35.58 143.62 38.05 144.96 40.44C146.3 42.83 148.1 44.68 150.36 46.01C152.62 47.34 155.05 48 157.64 48C160.23 48 162.73 47.34 165.07 46.02C167.41 44.7 169.21 42.92 170.47 40.67C171.73 38.42 172.36 35.89 172.36 33.07C172.36 28.78 170.95 25.19 168.12 22.3C165.29 19.42 161.81 17.97 157.67 17.97V17.98Z" fill="white"/>
<path d="M218.83 39.1309L222.86 41.2509C221.54 43.8409 220.01 45.9409 218.28 47.5309C216.55 49.1209 214.6 50.3309 212.44 51.1609C210.28 51.9909 207.83 52.4109 205.1 52.4109C199.05 52.4109 194.31 50.4309 190.89 46.4609C187.48 42.4909 185.77 38.0009 185.77 33.0009C185.77 28.2909 187.22 24.1009 190.11 20.4109C193.77 15.7209 198.68 13.3809 204.83 13.3809C210.98 13.3809 216.21 15.7809 219.99 20.5809C222.68 23.9709 224.04 28.2009 224.09 33.2709H190.69C190.78 37.5809 192.16 41.1209 194.82 43.8709C197.48 46.6309 200.78 48.0109 204.69 48.0109C206.58 48.0109 208.42 47.6809 210.21 47.0209C212 46.3609 213.52 45.4909 214.77 44.4009C216.02 43.3109 217.38 41.5609 218.83 39.1309V39.1309ZM218.83 29.1309C218.19 26.5809 217.27 24.5509 216.05 23.0209C214.83 21.5009 213.22 20.2709 211.22 19.3409C209.22 18.4109 207.11 17.9409 204.9 17.9409C201.26 17.9409 198.12 19.1109 195.51 21.4509C193.6 23.1609 192.15 25.7109 191.17 29.1309H218.84H218.83Z" fill="white"/>
<path d="M232.99 14.3309H237.77V20.9809C239.68 18.4309 241.8 16.5309 244.12 15.2709C246.44 14.0109 248.96 13.3809 251.69 13.3809C254.42 13.3809 256.93 14.0909 259.08 15.5009C261.23 16.9109 262.82 18.8109 263.84 21.2009C264.86 23.5909 265.38 27.3109 265.38 32.3609V51.4709H260.6V33.7609C260.6 29.4809 260.42 26.6309 260.07 25.2009C259.52 22.7409 258.45 20.9009 256.89 19.6609C255.32 18.4209 253.27 17.8009 250.75 17.8009C247.86 17.8009 245.27 18.7609 242.99 20.6709C240.7 22.5809 239.2 24.9509 238.47 27.7709C238.01 29.6109 237.79 32.9809 237.79 37.8709V51.4809H233.01V14.3309H232.99Z" fill="white"/>
<path d="M293.55 34.9395C296.1 34.9395 298.28 35.8395 300.08 37.6395C301.88 39.4395 302.78 41.6395 302.78 44.2395C302.78 46.8395 301.88 48.9795 300.08 50.8095C298.28 52.6395 296.1 53.5495 293.55 53.5495C291 53.5495 288.82 52.6395 287.02 50.8095C285.22 48.9795 284.32 46.7895 284.32 44.2395C284.32 41.6895 285.22 39.4395 287.02 37.6395C288.82 35.8395 291 34.9395 293.55 34.9395Z" fill="white"/>
</svg>
